<?xml version="1.0" standalone="no"?>
<!DOCTYPE svg PUBLIC "-//W3C//DTD SVG 1.1//EN" "http://www.w3.org/Graphics/SVG/1.1/DTD/svg11.dtd" >
<svg xmlns="http://www.w3.org/2000/svg">
<metadata></metadata>
<defs>
<font id="ergoebold" horiz-adv-x="1288" >
<font-face units-per-em="2048" ascent="1638" descent="-410" />
<missing-glyph horiz-adv-x="774" />
<glyph horiz-adv-x="2048" />
<glyph horiz-adv-x="2048" />
<glyph unicode="&#xd;" horiz-adv-x="774" />
<glyph unicode=" "  horiz-adv-x="774" />
<glyph unicode="&#x09;" horiz-adv-x="774" />
<glyph unicode="&#xa0;" horiz-adv-x="774" />
<glyph unicode="!" horiz-adv-x="645" d="M145 0h306v274h-306v-274zM162 387h289v983h-289v-983z" />
<glyph unicode="&#x22;" horiz-adv-x="788" d="M113 983h194v371h-194v-371zM467 983h195v371h-195v-371z" />
<glyph unicode="#" d="M-16 307h178l-49 -307h290l48 307h274l-47 -307h272l47 307h179l32 209h-178l49 307h176l33 209h-178l66 322h-275l-65 -322h-271l64 322h-275l-63 -322h-178l-33 -209h178l-65 -307h-177zM483 516l49 307h273l-47 -307h-275z" />
<glyph unicode="$" d="M209 322l33 -259q47 -18 174 -43q41 -8 116 -20v-178h256v194q127 53 197 125q80 82 80 185q0 154 -125 288q-4 4 -233 207q-127 113 -127 199q0 53 39.5 86t121.5 33q55 0 125 -16.5t164 -57.5l-33 258q-70 29 -147 41q-25 2 -62 6v195h-256v-195q-141 -47 -219 -121 q-86 -82 -86 -186q0 -145 129 -283q119 -106 240 -211q131 -117 131 -207q0 -63 -46 -105t-136 -42q-70 0 -150 23.5t-186 83.5z" />
<glyph unicode="%" horiz-adv-x="1804" d="M45 922q0 -180 86 -301q98 -137 272 -138q152 0 240 135q80 123 80 304q0 182 -80 307q-90 141 -240 141q-172 0 -270 -139q-88 -125 -88 -309zM236 913q0 125 40.5 226.5t110.5 101.5q82 0 123 -100q35 -84 35 -213q0 -137 -33 -217q-41 -98 -125 -99q-82 0 -121 95 q-31 76 -30 206zM451 0h194l692 1354h-178zM1067 401q0 -180 88 -299q100 -135 279 -135q150 0 235 133q78 121 78 297q0 180 -80 303q-90 138 -250 138q-166 0 -262 -136q-88 -125 -88 -301zM1257 408q0 117 36 201.5t108 84.5q80 0 123 -94q37 -82 37 -209 q0 -123 -37 -209t-107 -86q-74 0 -117 93.5t-43 218.5z" />
<glyph unicode="&#x26;" horiz-adv-x="1480" d="M115 393q0 -172 153.5 -299t378.5 -127q102 0 212 32t220 97l97 -96h337l-258 258q72 51 99 203q14 84 14 217h-274q12 -37 12 -80q0 -61 -16 -121q-2 -10 -11 -26l-211 227q-117 119 -171 206t-54 146q0 63 57.5 94t143.5 31q55 0 116.5 -12.5t102.5 -30.5l-33 242 q-143 29 -246 28q-209 0 -325 -88q-109 -82 -109 -217q1 -129 101 -254q-170 -86 -253 -198.5t-83 -231.5zM412 375q0 61 41 126.5t127 127.5l354 -355q-68 -51 -136.5 -76.5t-133.5 -25.5q-109 0 -180.5 57.5t-71.5 145.5z" />
<glyph unicode="'" horiz-adv-x="436" d="M33 983h145l193 371h-242z" />
<glyph unicode="(" horiz-adv-x="708" d="M168 483q0 -242 41 -467t113 -419h227q-123 459 -123 878q0 395 106 895h-225q-72 -227 -105.5 -453.5t-33.5 -433.5z" />
<glyph unicode=")" horiz-adv-x="708" d="M145 1370q68 -180 102 -415.5t34 -487.5q0 -254 -31 -478.5t-88 -391.5h241q82 315 95 380q51 256 51 500q0 205 -33 420t-113 473h-258z" />
<glyph unicode="*" horiz-adv-x="1159" d="M209 1065l258 -66l-193 -176l113 -129l193 209l178 -209l110 113l-174 192l256 66l-65 145l-240 -114l17 274h-179l33 -274l-242 114z" />
<glyph unicode="+" d="M80 387h436v-387h258v387h434v258h-434v371h-258v-371h-436v-258z" />
<glyph unicode="," horiz-adv-x="645" d="M63 -242h211l258 451h-323z" />
<glyph unicode="-" horiz-adv-x="657" d="M61 420h533v209h-533v-209z" />
<glyph unicode="." horiz-adv-x="645" d="M162 0h305v291h-305v-291z" />
<glyph unicode="/" horiz-adv-x="835" d="M-49 0h274l676 1370h-289z" />
<glyph unicode="0" d="M98 705q0 -295 135 -508q147 -231 385 -232q295 0 449 223q133 195 133 508q0 293 -137 488q-153 219 -434 219q-242 0 -393 -221q-137 -201 -138 -477zM393 678q0 201 64 342q71 158 188 158q129 0 199 -152q61 -131 61 -334q0 -199 -61 -342q-68 -158 -182 -157 q-131 0 -200 142t-69 343z" />
<glyph unicode="1" d="M307 967l193 129v-1096h305v1370h-322l-176 -129v-274z" />
<glyph unicode="2" d="M129 0h997v225h-577l401 437q84 92 136.5 204.5t52.5 196.5q0 154 -150.5 235.5t-408.5 81.5q-197 0 -402 -41l-16 -243q213 57 368 57q121 0 189.5 -36t68.5 -109q0 -51 -34.5 -116t-108.5 -151l-516 -532v-209z" />
<glyph unicode="3" d="M113 274l32 -241q61 -20 181 -42t241 -22q223 0 375 92q184 113 184 326q0 139 -106 223q-88 70 -215 84q131 23 210 117t79 254q0 164 -158 246q-137 72 -354 71q-84 0 -175.5 -8t-181.5 -20l-47 -242q174 57 311 57t210 -51t73 -125q0 -76 -77 -133t-212 -57 q-78 0 -161 20v-227q33 6 67.5 8t75.5 2q168 0 262 -63q84 -57 84 -144q0 -86 -85 -148.5t-239 -62.5q-168 0 -374 86z" />
<glyph unicode="4" d="M113 387h565v-387h287v387h211v209h-211v758h-369l-483 -709v-258zM338 596l356 516v-516h-356z" />
<glyph unicode="5" d="M162 242l31 -242q176 -37 319 -37q305 0 481 143q158 127 158 310q0 160 -125 268q-139 121 -375 121q-84 0 -168 -14l33 337h563v226h-870l-31 -758q164 41 295 41q168 0 253 -61.5t85 -149.5q0 -98 -94 -173t-258 -75q-68 0 -141.5 15.5t-155.5 48.5z" />
<glyph unicode="6" d="M115 416q0 -238 178 -355q143 -94 369 -94q244 0 387 150q129 135 129 321q0 166 -101 277q-111 123 -301 123q-39 0 -61.5 -2t-69.5 -13l-113 -211q72 23 125 23q106 0 168 -67.5t62 -157.5q0 -98 -74 -160t-176 -62q-98 0 -164 62q-72 68 -72 192q0 127 60 258 q47 106 166 279q129 186 258 375h-369q-207 -301 -309 -549q-92 -223 -92 -389z" />
<glyph unicode="7" d="M145 1128h643l-546 -1128h370l514 1128v226h-981v-226z" />
<glyph unicode="8" d="M109 375q0 -160 110 -271q125 -125 344 -124q18 0 43 2t39 2q266 0 414 120q131 109 131 269q0 113 -71.5 210t-200.5 142q102 29 160.5 113t58.5 188q0 150 -103 252q-131 131 -403 131q-229 0 -363 -121q-115 -104 -114 -254q0 -115 62.5 -206t154.5 -103 q-127 -47 -194.5 -142.5t-67.5 -207.5zM401 393q0 88 77 154.5t165 66.5q100 0 175 -54t75 -146q0 -106 -66.5 -169t-177.5 -63q-92 0 -164 49q-82 55 -82 146q-2 12 -2 16zM430 999q0 84 63.5 139.5t153.5 55.5q80 0 150.5 -56.5t70.5 -138.5q0 -80 -64.5 -134t-146.5 -54 q-90 0 -158.5 51t-68.5 137z" />
<glyph unicode="9" d="M115 946q0 -176 102 -297q113 -133 299 -133q47 0 68.5 3t60.5 13l113 226q-29 -10 -69 -18.5t-68 -8.5q-90 0 -154 61.5t-64 159.5q0 96 76 164t168 68q94 0 158 -62q72 -70 72 -188q0 -82 -37 -201q-47 -152 -148 -323q-119 -205 -305 -410h371q184 238 293.5 486.5 t109.5 449.5q0 213 -133 336q-143 133 -414 133q-240 0 -376 -143q-123 -129 -123 -316z" />
<glyph unicode=":" horiz-adv-x="645" d="M162 0h305v291h-305v-291zM162 758h305v291h-305v-291z" />
<glyph unicode=";" horiz-adv-x="645" d="M63 -242h211l258 451h-323zM182 758h305v291h-305v-291z" />
<glyph unicode="&#x3c;" horiz-adv-x="1136" d="M96 354l908 -403v291l-666 258l666 291v290l-908 -419v-308z" />
<glyph unicode="=" d="M100 145h1088v258h-1088v-258zM100 612h1088v258h-1088v-258z" />
<glyph unicode="&#x3e;" horiz-adv-x="1120" d="M96 -33l908 420v275l-908 419v-290l666 -259l-666 -290v-275z" />
<glyph unicode="?" horiz-adv-x="997" d="M16 1096q78 43 169 66.5t182 23.5q111 0 178 -35t67 -107q0 -57 -75 -149q-129 -158 -146 -184q-78 -127 -78 -258v-40.5t9 -58.5h274q0 176 86 299q82 92 164 187q88 113 88 256q0 145 -144.5 229t-373.5 84q-171 0 -353 -39zM307 0h305v258h-305v-258z" />
<glyph unicode="@" horiz-adv-x="1675" d="M76 688q0 -313 227 -516q215 -193 520 -192q180 0 348 71.5t310 222.5h-258q-70 -70 -170.5 -108.5t-214.5 -38.5q-223 0 -377 143q-172 160 -172 430q0 274 180 430q160 139 393 140q233 0 389 -138.5t156 -373.5q0 -115 -58.5 -194t-156.5 -97v420q0 145 -86 207 q-72 51 -207 51q-86 0 -184.5 -17.5t-182.5 -31.5l-32 -176q51 29 153.5 54t180.5 25q61 0 96 -18t35 -61q0 -53 -272.5 -119t-272.5 -250q0 -115 82 -170t223 -55q66 0 143 12l33 145q-12 -2 -62.5 -13t-70.5 -11q-39 0 -64.5 18.5t-25.5 54.5q0 88 125 125q147 43 162 68 v-371q78 -12 145 -12q225 0 358.5 116.5t133.5 315.5q0 307 -226 483q-207 162 -526 162q-313 0 -528 -176q-246 -201 -246 -555z" />
<glyph unicode="A" horiz-adv-x="1417" d="M-63 0h337l193 467h530l179 -467h321l-563 1370h-354zM549 694l209 467l160 -467h-369z" />
<glyph unicode="B" horiz-adv-x="1320" d="M145 0h676q223 0 342 109q104 94 105 243q0 131 -80 232q-86 109 -223 125q117 31 182 116.5t65 192.5q0 143 -106 242q-120 110 -328 110h-4h-629v-1370zM436 193v403h289q111 0 176.5 -61.5t65.5 -141.5q0 -78 -68 -139t-174 -61h-289zM436 807v371h258 q100 0 164 -54.5t64 -122.5q0 -78 -62.5 -136t-165.5 -58h-258z" />
<glyph unicode="C" horiz-adv-x="1320" d="M76 709q0 -324 184 -519q205 -215 596 -215q82 0 171 10.5t196 30.5l32 242q-98 -35 -188 -51.5t-166 -16.5q-248 0 -393 152q-129 135 -129 334t129 338q142 153 380 153h3q78 0 165 -17t183 -54l-31 243q-143 59 -323 60q-326 0 -549 -162q-260 -188 -260 -528z" />
<glyph unicode="D" horiz-adv-x="1529" d="M162 0h674q301 0 483 225q164 203 164 486q0 272 -152 454q-170 205 -463 205h-706v-1370zM451 225v920h307q211 0 323 -133q98 -115 99 -299q0 -195 -107 -334q-119 -154 -315 -154h-307z" />
<glyph unicode="E" horiz-adv-x="1255" d="M162 0h981v225h-676v371h596v211h-596v338h676v225h-981v-1370z" />
<glyph unicode="F" horiz-adv-x="1159" d="M145 0h306v580h546v211h-546v354h628v225h-934v-1370z" />
<glyph unicode="G" horiz-adv-x="1546" d="M80 678q0 -356 239 -543q215 -168 572 -168q131 0 260 16.5t283 49.5v741h-549v-209h241v-340q-53 -20 -115.5 -32.5t-131.5 -12.5q-205 0 -334 109q-158 133 -158 405q0 219 182 350q160 115 383 115q211 0 416 -78l-16 273q-227 45 -430 45q-381 0 -611.5 -189.5 t-230.5 -531.5z" />
<glyph unicode="H" horiz-adv-x="1579" d="M145 0h306v612h692v-612h307v1370h-307v-547h-692v547h-306v-1370z" />
<glyph unicode="I" horiz-adv-x="595" d="M145 0h322v1370h-322v-1370z" />
<glyph unicode="J" horiz-adv-x="901" d="M-80 258l31 -242q219 -55 375 -55q223 0 335.5 96.5t112.5 264.5v1048h-307v-934q0 -131 -59.5 -188.5t-167.5 -57.5q-68 0 -142.5 16.5t-177.5 51.5z" />
<glyph unicode="K" horiz-adv-x="1351" d="M145 0h322v1370h-322v-1370zM467 709l530 -709h371l-563 709l500 661h-355z" />
<glyph unicode="L" horiz-adv-x="1079" d="M125 0h934v209h-629v1161h-305v-1370z" />
<glyph unicode="M" horiz-adv-x="1787" d="M145 0h242v1032l354 -1032h273l354 1065v-1065h274v1370h-419l-338 -1032l-320 1032h-420v-1370z" />
<glyph unicode="N" horiz-adv-x="1609" d="M145 0h275v1016l690 -1016h371v1370h-273v-1048l-659 1048h-404v-1370z" />
<glyph unicode="O" horiz-adv-x="1708" d="M59 676q0 -289 191 -490q211 -221 567 -221q399 0 619 217q196 194 196 497q0 298 -194 499q-219 227 -596 227q-369 0 -586 -229q-197 -207 -197 -500zM383 686q0 203 121 344q131 152 348 152q221 0 348 -154q113 -137 113 -338q0 -213 -117 -352q-129 -156 -358 -156 q-213 0 -340 158q-115 143 -115 346z" />
<glyph unicode="P" horiz-adv-x="1191" d="M162 0h289v1161h227q88 0 143 -59q49 -53 49 -133q0 -88 -59 -150q-67 -69 -179 -69h-3q-53 0 -76 4t-70 20l66 -194q102 -23 178 -23q215 0 338 135q109 119 109 293q0 158 -91 266q-98 119 -262 119h-659v-1370z" />
<glyph unicode="Q" horiz-adv-x="1708" d="M76 672q0 -332 239 -531q211 -174 490 -174l805 66l49 241l-275 -65q117 98 172.5 230t55.5 280q0 326 -236 508q-211 162 -530 162q-338 0 -543 -170q-227 -190 -227 -547zM375 694q0 221 151 357q137 123 330 123t315 -121q135 -133 136 -381q0 -225 -144 -357 q-126 -116 -312 -116h-3q-199 0 -330 125q-143 137 -143 370z" />
<glyph unicode="R" d="M162 0h289v1161h307q72 0 124 -56t52 -124q0 -92 -74 -162q-82 -78 -215 -78q-47 0 -68.5 3.5t-60.5 13.5l385 -758h322l-371 629q170 0 287 127q108 118 108 269q0 146 -102 239q-119 106 -340 106h-643v-1370z" />
<glyph unicode="S" horiz-adv-x="1062" d="M80 307l33 -258q96 -33 193 -49t181 -16q221 0 353.5 93t132.5 240q0 150 -146 295q-18 18 -268 222q-147 119 -147 200q0 61 63.5 103.5t173.5 42.5q123 0 269 -52l-33 226q-82 14 -156 22t-149 8q-207 0 -334 -67q-150 -80 -150 -236q0 -176 144 -317q10 -10 270 -209 q145 -111 145 -209q0 -66 -71.5 -106.5t-175.5 -40.5q-84 0 -167 25.5t-161 82.5z" />
<glyph unicode="T" horiz-adv-x="1126" d="M-16 1145h436v-1145h305v1145h434v225h-1175v-225z" />
<glyph unicode="U" horiz-adv-x="1529" d="M129 403q0 -211 199 -333q180 -111 438 -111q260 0 436 107q199 119 199 321v983h-307v-870q0 -154 -97 -242q-84 -78 -213 -78q-137 0 -237 86q-111 96 -111 250v854h-307v-967z" />
<glyph unicode="V" horiz-adv-x="1492" d="M-63 1370l546 -1370h369l629 1370h-322l-481 -1112l-404 1112h-337z" />
<glyph unicode="W" horiz-adv-x="2207" d="M-33 1370l582 -1370h385l145 371l144 -371h372l596 1370h-307l-467 -1145l-194 453l274 692h-274l-129 -387l-144 387h-305l305 -692l-209 -469l-434 1161h-340z" />
<glyph unicode="X" horiz-adv-x="1368" d="M-33 0h355l323 500l305 -500h371l-485 694l469 676h-324l-303 -450l-291 450h-371l467 -661z" />
<glyph unicode="Y" horiz-adv-x="1191" d="M-63 1370l483 -790v-580h305v532l514 838h-338l-305 -579l-322 579h-337z" />
<glyph unicode="Z" horiz-adv-x="1255" d="M80 0h1112v225h-725l725 903v242h-1079v-242h692l-725 -903v-225z" />
<glyph unicode="[" horiz-adv-x="708" d="M162 -403h450v112h-176v1548h176v113h-450v-1773z" />
<glyph unicode="\" horiz-adv-x="645" d="M-178 1354l694 -1354h289l-676 1354h-307z" />
<glyph unicode="]" horiz-adv-x="708" d="M113 -307v-113h436v1774h-436v-113h178v-1548h-178z" />
<glyph unicode="^" horiz-adv-x="1120" d="M117 883h307l119 295l155 -295h306l-283 471h-356z" />
<glyph unicode="_" horiz-adv-x="1013" d="M0 -205v-102h1018v102h-1018z" />
<glyph unicode="`" horiz-adv-x="694" d="M80 1436l211 -275h225l-113 275h-323z" />
<glyph unicode="a" horiz-adv-x="1159" d="M55 272q0 -123 86 -206q100 -98 283 -99q98 0 221 33l33 178q-18 -12 -71.5 -25.5t-102.5 -13.5q-68 0 -117 31t-49 88q0 115 225 180q158 45 211 78v-516h273v774q0 137 -132 203q-111 55 -294 55q-117 0 -224.5 -17t-203.5 -48l-15 -193q100 39 210 64.5t194 25.5 q82 0 131 -32.5t49 -81.5q0 -76 -182 -125q-289 -76 -340 -101q-184 -86 -185 -252z" />
<glyph unicode="b" horiz-adv-x="1255" d="M113 0h290l-16 145q84 -84 180.5 -126t196.5 -42q184 0 313 132q137 139 137 356q0 299 -180 455q-152 131 -379 131q-66 0 -133 -14.5t-119 -37.5v371h-290v-1370zM403 451v340q127 47 222 47q158 0 233 -107q59 -82 60 -199q0 -193 -76 -280q-63 -76 -180 -76 q-90 0 -174.5 84t-84.5 191z" />
<glyph unicode="c" horiz-adv-x="997" d="M57 516q0 -223 138 -383q150 -174 399 -174q133 0 291 57l16 209q-63 -31 -123.5 -45t-111.5 -14q-150 0 -240 106q-82 96 -82 234q0 131 76 219q84 98 235 98q113 0 263 -65l-33 241q-154 45 -285 45q-260 0 -410 -163q-133 -145 -133 -365z" />
<glyph unicode="d" d="M80 483q0 -231 143 -377q131 -133 316 -133q109 0 202 46.5t160 142.5l-16 -162h274v1370h-291v-354q-107 26 -204 26h-7q-229 0 -391 -133q-186 -154 -186 -426zM371 467q0 166 100 264t250 98h6q74 0 141 -22v-340q0 -129 -74.5 -210t-172.5 -81q-96 0 -170 80 q-80 86 -80 211z" />
<glyph unicode="e" horiz-adv-x="1142" d="M59 514q0 -297 191 -432q150 -106 393 -107q104 0 201.5 19.5t136.5 38.5l33 209q-59 -33 -151.5 -55.5t-182.5 -22.5q-150 0 -236 65q-106 80 -106 254h741l6 92q0 225 -151 355q-137 117 -338 117q-227 0 -373 -127q-164 -143 -164 -406zM338 629q16 111 88 171t162 60 t153.5 -59t63.5 -172h-467z" />
<glyph unicode="f" horiz-adv-x="708" d="M49 807h113v-807h289v807h243v209h-243v96q0 111 139 111q78 0 168 -45l-17 208q-39 10 -106.5 19.5t-132.5 9.5q-145 0 -232 -47q-109 -59 -108 -190v-162h-113v-209z" />
<glyph unicode="g" horiz-adv-x="1304" d="M80 451q0 -221 143 -353q130 -118 313 -118h3q109 0 196.5 40.5t149.5 124.5v-129l6 -65q0 -125 -88 -182q-74 -49 -207 -50q-98 0 -198.5 21.5t-188.5 50.5l33 -211q150 -37 260 -51t200 -14q211 0 328 77q145 96 146 312v1095l-498 33q-215 0 -377 -112 q-221 -154 -221 -469zM371 500q0 170 118 256q93 67 226 67h4q43 0 87 -5t79 -11v-324q0 -139 -77 -220t-183 -81q-100 0 -174 82q-80 90 -80 236z" />
<glyph unicode="h" horiz-adv-x="1304" d="M113 0h307v483q0 152 94 250q84 88 188 88q88 0 152 -53t64 -139v-629h290v725q0 160 -131 254q-119 86 -289 86q-123 0 -223 -49t-145 -146v516h-307v-1386z" />
<glyph unicode="i" horiz-adv-x="548" d="M129 0h291v1016h-291v-1016zM129 1194h291v209h-291v-209z" />
<glyph unicode="j" horiz-adv-x="628" d="M-178 -225l33 -226q175 -34 306 -34h7q184 0 258 72.5t74 219.5v1209h-291v-1096q0 -76 -29 -119q-42 -65 -148 -65h-3q-82 0 -207 39zM209 1194h291v209h-291v-209z" />
<glyph unicode="k" horiz-adv-x="1110" d="M129 0h291v1386h-291v-1386zM436 580l400 -580h323l-434 580l369 436h-320z" />
<glyph unicode="l" horiz-adv-x="548" d="M129 0h291v1386h-291v-1386z" />
<glyph unicode="m" horiz-adv-x="1820" d="M113 0h307v612q0 90 62.5 150.5t133.5 60.5q63 0 110.5 -43t47.5 -118v-662h305v612q0 94 64.5 150.5t144.5 56.5q61 0 103.5 -40t42.5 -117v-662h290v758q0 141 -96 215q-85 65 -215 65h-4q-117 0 -219.5 -46t-142.5 -122q-25 80 -109 126t-193 46q-100 0 -190 -38.5 t-152 -116.5v129h-290v-1016z" />
<glyph unicode="n" horiz-adv-x="1304" d="M129 0h291v549q0 135 88 211q77 67 183 67h3q90 0 157 -49t67 -133v-645h290v758q0 129 -100 207q-111 84 -320 84q-106 0 -194 -39q-104 -47 -174 -140v146h-291v-1016z" />
<glyph unicode="o" horiz-adv-x="1255" d="M63 506q0 -217 136 -361q153 -161 427 -161h3q254 0 413 168q145 154 146 362q0 221 -146 377q-162 174 -430 174q-256 0 -409 -176q-139 -160 -140 -383zM352 516q0 131 68 229q75 109 192 109q127 0 211 -101.5t84 -236.5t-73 -231q-82 -106 -222 -107q-121 0 -194 105 q-66 94 -66 233z" />
<glyph unicode="p" horiz-adv-x="1271" d="M129 -467h291v596q84 -78 175 -118t173 -40q178 0 302 150.5t124 376.5q0 270 -125 401q-131 137 -414 137q-200 0 -526 -53v-1450zM420 420v371q33 23 87 39t114 16q127 0 198 -70q88 -86 88 -268q0 -160 -71 -246q-63 -76 -162 -76q-96 0 -172 64q-82 70 -82 170z" />
<glyph unicode="q" horiz-adv-x="1271" d="M211 104q127 -133 311 -133q106 0 195.5 47.5t150.5 143.5v-613h291v1450q-217 49 -403 50q-319 0 -490 -119q-196 -136 -196 -427q0 -251 141 -399zM354 500q0 188 105 276q92 78 252 78q72 0 157 -16v-338q0 -129 -83 -216t-185 -87q-100 0 -170 75q-76 84 -76 228z " />
<glyph unicode="r" horiz-adv-x="788" d="M113 0h290v596q0 119 89 178q72 47 174 47q27 0 55.5 -4t52.5 -10l-33 225q-59 12 -106 12q-160 0 -248 -141v113h-274v-1016z" />
<glyph unicode="s" horiz-adv-x="901" d="M63 258l33 -225q164 -51 336 -51q207 0 310.5 70.5t103.5 195.5q0 104 -111 219q-25 25 -205 176q-111 92 -110 145q0 74 137 74q117 0 264 -55l-33 209q-135 35 -280 35q-176 0 -279 -54q-125 -66 -125 -198q0 -113 107 -224q23 -23 201 -167q110 -89 110 -143 q0 -44 -45 -65.5t-123 -21.5q-76 0 -154.5 21.5t-136.5 58.5z" />
<glyph unicode="t" horiz-adv-x="757" d="M33 807h145v-533q0 -154 70.5 -226.5t214.5 -72.5q109 0 262 41l33 209q-41 -12 -79 -21t-71 -9q-53 0 -94 36q-47 43 -47 107v469h258v209h-258v241l-289 -79v-162h-145v-209z" />
<glyph unicode="u" horiz-adv-x="1271" d="M113 274q0 -150 116 -235q104 -78 250 -78q133 0 247 53.5t142 130.5v-145h291v1016h-291v-549q0 -127 -70.5 -199.5t-168.5 -72.5q-82 0 -154 67.5t-72 157.5v596h-290v-742z" />
<glyph unicode="v" horiz-adv-x="1175" d="M0 1016l403 -1016h306l401 1016h-289l-256 -758l-274 758h-291z" />
<glyph unicode="w" horiz-adv-x="1771" d="M-16 1016l403 -1016h275l223 725l209 -725h290l388 1016h-259l-258 -742l-225 742h-289l-209 -742l-274 742h-274z" />
<glyph unicode="x" horiz-adv-x="1142" d="M0 0h338l227 387l240 -387h338l-385 532l336 484h-306l-208 -338l-193 338h-338l338 -484z" />
<glyph unicode="y" horiz-adv-x="1093" d="M-16 -225l16 -211q135 -31 236 -31q150 0 243.5 64.5t149.5 193.5l481 1225h-274l-271 -791l-274 791h-307l419 -1032q-18 -90 -55 -148q-68 -102 -190 -102q-41 0 -78 8t-96 33z" />
<glyph unicode="z" horiz-adv-x="980" d="M80 0h821v209h-498l498 582v225h-805v-193h484l-500 -598v-225z" />
<glyph unicode="{" horiz-adv-x="708" d="M63 387q100 0 136 -47q27 -37 26 -131v-451q0 -88 41 -133t137 -45h226v98q-74 0 -94 7q-51 14 -52 122v484q0 63 -53 125q-45 51 -92 67q53 14 99 63.5t46 115.5v483q0 72 24.5 92t121.5 20v113h-242q-66 0 -114 -42t-48 -103v-531q0 -76 -33 -102.5t-129 -26.5v-178z " />
<glyph unicode="|" horiz-adv-x="645" d="M162 -184h289v1570h-289v-1570z" />
<glyph unicode="}" horiz-adv-x="708" d="M63 -307v-113h259q72 0 116.5 47t44.5 115v532q0 100 60 119q43 4 86 10v177q-12 -2 -23 -2h-20q-63 0 -83 23.5t-20 66.5v26v484q0 98 -37.5 145t-123.5 47h-259v-113q106 0 130 -14q33 -23 32 -115v-466q0 -72 25.5 -106t103.5 -73q-66 -39 -94 -80q-35 -49 -35 -129 v-452q0 -92 -27.5 -110.5t-134.5 -18.5z" />
<glyph unicode="~" d="M96 532l129 -210q47 76 93.5 106.5t101.5 30.5q72 0 305 -103q113 -49 197 -49q86 0 155.5 43t130.5 150l-145 209q-53 -141 -174 -142q-57 0 -237.5 76t-268.5 76t-159 -44.5t-128 -142.5z" />
<glyph unicode="&#xa1;" horiz-adv-x="645" d="M162 -354h305v966h-305v-966zM162 725h305v291h-305v-291z" />
<glyph unicode="&#xa2;" d="M219 598q0 -188 96 -324q106 -150 297 -178v-176h224v160l41 -2q35 0 74.5 7t78.5 28l33 225q-123 -61 -227 -62q-145 0 -230.5 104.5t-85.5 242.5q0 131 74 217q84 98 233 98q102 0 236 -51l-33 225q-25 12 -89 22.5t-105 10.5v209h-224v-209q-186 -47 -295 -209 q-98 -147 -98 -338z" />
<glyph unicode="&#xa3;" d="M178 580h209q12 -43 12 -91q0 -86 -39 -155q-45 -78 -135 -125v-225q59 49 130 72.5t137 23.5q102 0 354 -76q123 -37 196 -37q55 0 98.5 11.5t82.5 37.5l32 242q-41 -31 -93 -46t-111 -15q-72 0 -172 18q-236 43 -299 43q41 31 67.5 91.5t26.5 121.5q0 66 -29 109h352 l50 194h-435q-66 131 -65 221q0 164 215 164q127 0 332 -63l-47 258q-109 35 -261 35q-229 0 -378 -74q-182 -90 -183 -262q0 -59 23.5 -129t73.5 -150h-129z" />
<glyph unicode="&#xa4;" d="M96 274l146 -145l112 113q106 -90 289 -90q86 0 158.5 21.5t132.5 68.5l113 -113l145 145l-113 113q109 145 109 295t-109 270l113 113l-145 145l-113 -114q-86 86 -281 86q-80 0 -158.5 -21.5t-140.5 -64.5l-112 114l-146 -145l113 -113q-53 -72 -81 -145.5t-28 -140.5 q0 -72 29 -142.5t80 -136.5zM367 676q0 106 75 201q84 102 197 102q115 0 203 -86t88 -211q0 -147 -94 -240q-84 -82 -197 -82t-192.5 96.5t-79.5 219.5z" />
<glyph unicode="&#xa5;" d="M33 387h450v-387h305v387h451v209h-451l113 195h338v208h-209l209 355h-321l-289 -547l-275 547h-321l209 -355h-209v-208h321l113 -195h-434v-209z" />
<glyph unicode="&#xa6;" horiz-adv-x="1013" d="M328 8v533h213v-533h-213zM328 688v516h221v-516h-221z" />
<glyph unicode="&#xa7;" horiz-adv-x="1159" d="M100 485q0 -156 142 -268q131 -82 264 -162q143 -88 143 -184q0 -59 -50 -103t-136 -44q-57 0 -120.5 18t-149.5 65v-227q190 -66 354 -65q201 0 313 100q100 88 101 219q0 147 -125 229q104 63 165.5 164t61.5 207q0 150 -143 268q-12 10 -267 172q-145 92 -145 175 q0 55 53 93t141 38q55 0 110.5 -15.5t121.5 -52.5l16 211q-98 33 -183 47t-159 14q-197 0 -311 -92q-104 -84 -104 -207q-1 -129 114 -231q-100 -90 -149 -172q-57 -94 -58 -197zM342 518q0 91 125 191q199 -121 233 -148q123 -94 123 -182t-114 -186q-205 119 -242 145 q-125 92 -125 180z" />
<glyph unicode="&#xa8;" horiz-adv-x="980" d="M145 1210h242v193h-242v-193zM500 1210h241v193h-241v-193z" />
<glyph unicode="&#xa9;" horiz-adv-x="1609" d="M70 688q0 -336 249 -534q221 -176 525 -177q319 0 534 177q233 190 234 508q0 336 -230 538q-215 190 -530 191q-324 0 -541 -177q-241 -196 -241 -526zM274 692q0 221 167.5 388t394.5 167q115 0 218 -38t186 -117.5t127 -188t44 -219.5q0 -231 -156 -395 q-168 -176 -434 -176q-223 0 -389 188q-158 178 -158 391zM406 688q0 -176 126 -299q141 -137 373 -137q119 0 254 39l17 160q-123 -51 -226 -52q-133 0 -210.5 80t-77.5 215q0 137 76.5 206t215.5 69q90 0 222 -33l-50 160q-104 18 -192 18q-254 0 -399 -133 q-129 -119 -129 -293z" />
<glyph unicode="&#xaa;" horiz-adv-x="774" d="M63 952q0 -70 59.5 -120t170.5 -50h63q33 6 47 9l33 112q-59 -23 -104 -22q-43 0 -66.5 19.5t-23.5 51.5q0 59 106.5 81t118.5 48v-290h162v499q0 51 -73 80t-169 29q-68 0 -125.5 -7.5t-116.5 -21.5l-16 -145q61 31 121.5 49t114.5 18q41 0 74.5 -17.5t33.5 -43.5 q0 -37 -205 -90.5t-205 -188.5z" />
<glyph unicode="&#xab;" horiz-adv-x="964" d="M80 532l194 -354h209l-161 354l161 338h-209zM451 532l194 -354h207l-158 354l158 338h-207z" />
<glyph unicode="&#xac;" horiz-adv-x="2457" d="M80 -170v1567h2300v-1567h-2300zM127 -88v-35h317v35h-34q-39 0 -52 4q-33 12 -32 80l2 328q35 0 71.5 -1t73.5 -1l10 51l-4 4h-151v74v51q0 66 17 102.5t73 36.5q35 0 59 -18l23 -111h59q55 164 117 319q45 117 133 318q18 -53 119 -315q76 -201 110 -322h62 q31 125 110 406q94 328 123 370q15 8 60 8v37h-244v-37q29 0 65.5 -5t36.5 -21q0 -51 -77 -316l-82 -266l-238 651h-29l-250 -645q-33 137 -65.5 282.5t-56.5 268.5q-8 12 -7 21q0 20 31 25t45 5h25v37h-293v-37q53 0 66.5 -13t25.5 -73q20 -88 45 -180q57 -215 66 -305 q-47 0 -120 -66.5t-95 -117.5q-8 -20 -11.5 -43t-3.5 -62v-61l-82 -41v-21l82 9l2 -314q0 -66 -17 -81t-85 -15zM440 150q0 -121 70 -203t188 -82q131 0 215 84t84 215q0 115 -73.5 186.5t-190.5 71.5q-125 0 -209 -74t-84 -198zM553 188q0 80 39 139.5t115 59.5 q98 0 145 -92q37 -71 37 -180q0 -84 -33 -142q-41 -70 -121 -69q-94 0 -143 100q-39 78 -39 184zM973 -88v-35h295l-2 35q-61 0 -81 17.5t-20 64.5q0 12 2 48t2 60v58q0 94 21 131q33 57 129 57q78 0 108 -47q25 -39 25 -127v-111v-24q0 -90 -8 -162h198v35q-59 0 -75.5 10 t-16.5 47q2 41 2 68v188q0 197 -190 197q-51 0 -102.5 -31t-88.5 -78q2 37 3 56q0 33 -11 53q-47 -20 -94 -32.5t-96 -12.5v-35q23 2 35 2q27 0 44 -7t17 -28v-352q0 -23 -10 -35t-43 -12q-29 2 -43 2zM1311 1090q0 -178 236.5 -201t236.5 -154q0 -86 -65.5 -131t-155.5 -45 q-53 0 -107 16q-72 23 -86 60l-2 98h-39v-67v-29q0 -41 -6 -82q104 -43 217 -43q55 0 105 12q10 -82 10 -147q-39 -23 -92 -39v-25h92v-321q0 -127 131 -127q16 0 36.5 4t37.5 8l55 70l-17 22q-27 -31 -65 -30q-39 0 -60.5 28.5t-21.5 108.5v26v222q16 0 52 2t52 2 q31 0 60 -6l12 55h-176q0 49 2 99t8 95q57 47 86 91q37 55 37 118q0 180 -235.5 200.5t-235.5 152.5q0 78 55.5 120.5t137.5 42.5q39 0 90 -15t78 -38q10 -23 10 -69v-41h37q0 61 3 87.5t15 75.5q-109 43 -227 43q-127 0 -209 -59q-92 -68 -92 -190zM1858 522h327v37h-33 q-43 0 -59 10.5t-16 55.5v512q0 20 -1 40.5t-1 39.5q0 49 19.5 64t90.5 15v37h-327v-37q76 0 92 -14t16 -76v-49v-528q0 -45 -19.5 -57.5t-60.5 -12.5h-28v-37zM1927 254q0 -109 159 -139.5t159 -104.5q0 -51 -37 -78.5t-90 -27.5q-86 0 -117 30.5t-31 114.5h-33 q0 -23 -4 -77t-4 -60q0 -20 46 -33.5t122 -13.5q96 0 162 45q78 53 78 145q0 102 -160 135t-160 103q0 43 32 68.5t77 25.5q33 0 63.5 -15.5t55.5 -43.5q6 -29 8 -35q2 -12 2 -37l33 -2q0 35 6 77t8 64q-86 27 -164 27q-90 0 -145 -37q-66 -45 -66 -131z" />
<glyph unicode="&#xad;" horiz-adv-x="1013" d="M156 418v211h696v-211h-696z" />
<glyph unicode="&#xae;" horiz-adv-x="1609" d="M70 676q0 -305 192 -502q207 -211 557 -211q375 0 590 227q193 203 193 498q0 311 -226.5 511t-550.5 200q-295 0 -510 -178q-245 -203 -245 -545zM276 657q0 252 142 416q156 178 418 178q242 0 407 -188q154 -174 154 -391q0 -254 -170 -416q-158 -150 -383 -150 q-240 0 -404 162t-164 389zM516 291h209v676h143q57 0 92 -35t35 -82q0 -45 -31.5 -77t-95.5 -32h-110l192 -450h273l-226 354q111 0 174.5 69.5t63.5 166.5q0 84 -71.5 157.5t-166.5 73.5h-481v-821z" />
<glyph unicode="&#xaf;" horiz-adv-x="1728" d="M25 1329v193h1595v-193h-1595z" />
<glyph unicode="&#xb0;" horiz-adv-x="737" d="M188 1319q0 86 53.5 149.5t135.5 63.5q86 0 149.5 -53.5t63.5 -135.5q0 -86 -53.5 -149.5t-135.5 -63.5q-86 0 -149.5 53.5t-63.5 135.5zM254 1327q0 -51 42 -87t97 -36q51 0 87 42t36 97q0 51 -42 87t-97 36q-51 0 -87 -42t-36 -97z" />
<glyph unicode="&#xb1;" d="M72 936v258h436v371h258v-371h434v-258h-434v-387h-258v387h-436zM76 141v219h1130v-219h-1130z" />
<glyph unicode="&#xb2;" d="M258 909v101l291 258q82 80 82 129q0 37 -38 53t-108 16q-82 0 -209 -26l11 116q115 20 225 21q147 0 231 -39t84 -115q0 -39 -29.5 -95t-76.5 -99l-225 -211h323v-109h-561z" />
<glyph unicode="&#xb3;" d="M244 1030q121 -41 229 -41q92 0 144.5 29t52.5 69q0 41 -53.5 70t-157.5 29h-40t-48 -4v108q47 -10 100 -10q82 0 128 25.5t46 64.5q0 35 -44 59.5t-128 24.5q-82 0 -188 -29l28 115q49 6 105.5 10t111.5 4q131 0 221.5 -35.5t90.5 -115.5q0 -76 -48.5 -120t-127.5 -54 q80 -8 131 -39q63 -39 63 -107q0 -100 -110 -153q-94 -45 -230 -45q-84 0 -147.5 9t-108.5 21z" />
<glyph unicode="&#xb4;" horiz-adv-x="835" d="M178 1145h225l193 274h-322z" />
<glyph unicode="&#xb5;" horiz-adv-x="1271" d="M-23 -250q0 86 44.5 229.5t91.5 294.5v742h290v-596q0 -90 72 -157.5t154 -67.5q96 0 164 69q76 78 75 203v549h291v-1016h-291v145q-29 -78 -142.5 -131t-246.5 -53q-98 0 -176 31q-23 -86 -49 -178q-55 -190 -180 -191q-49 0 -73 34t-24 93z" />
<glyph unicode="&#xb6;" horiz-adv-x="1159" d="M59 1042q0 -143 95.5 -255.5t238.5 -112.5q51 0 93 11t94 40v-1176h161v1708h111v-1708h178v1821h-579q-195 0 -299 -102q-92 -90 -93 -226zM283 1024q0 104 61 162q76 72 236 71v-403q-55 -55 -115 -55q-74 0 -128 68.5t-54 156.5z" />
<glyph unicode="&#xb7;" horiz-adv-x="399" d="M66 608q0 57 40 99.5t97 42.5t99 -40t42 -98q0 -57 -39 -98t-96 -41t-100 39t-43 96z" />
<glyph unicode="&#xb8;" horiz-adv-x="821" d="M193 -371h323l113 275h-226z" />
<glyph unicode="&#xb9;" d="M389 1317v137l111 64h205v-682h-195v544z" />
<glyph unicode="&#xba;" horiz-adv-x="774" d="M59 1092q0 125 86 211q94 94 252 94q139 0 226 -97q77 -88 77 -215q0 -121 -79 -206q-88 -94 -240 -95q-150 0 -240 97q-82 88 -82 211zM225 1090q0 -74 46 -130.5t116 -56.5q63 0 103 57.5t40 129.5q0 74 -45 129t-114 55q-63 0 -104.5 -58.5t-41.5 -125.5z" />
<glyph unicode="&#xbb;" horiz-adv-x="964" d="M96 178h211l193 338l-193 338h-211l178 -338zM483 178h211l191 338l-191 338h-211l179 -338z" />
<glyph unicode="&#xbc;" horiz-adv-x="1826" d="M389 1317v137l111 64h205v-682h-195v544zM457 283l929 610l-2 244l-927 -623v-231zM1028 195h381v-203h193v203h143v108h-143v395h-248l-326 -370v-133zM1180 303l239 270v-270h-239z" />
<glyph unicode="&#xbd;" horiz-adv-x="1785" d="M383 266l930 611l-2 243l-928 -622v-232zM389 1317v137l111 64h205v-682h-195v544zM1094 0v100l290 258q82 80 82 129q0 37 -37.5 53.5t-107.5 16.5q-82 0 -209 -27l10 117q115 20 226 21q147 0 231 -39t84 -115q0 -39 -29.5 -95.5t-77.5 -99.5l-225 -210h324v-109h-561z " />
<glyph unicode="&#xbe;" horiz-adv-x="1605" d="M244 1030q121 -41 229 -41q92 0 144.5 29t52.5 69q0 41 -53.5 70t-157.5 29h-40t-48 -4v108q47 -10 100 -10q82 0 128 25.5t46 64.5q0 35 -44 59.5t-128 24.5q-82 0 -188 -29l28 115q49 6 105.5 10t111.5 4q131 0 221.5 -35.5t90.5 -115.5q0 -76 -48.5 -120t-127.5 -54 q80 -8 131 -39q63 -39 63 -107q0 -100 -110 -153q-94 -45 -230 -45q-84 0 -147.5 9t-108.5 21zM375 283l930 610l-2 244l-928 -623v-231zM891 170h342v-170h172v170h127v90h-127v332h-223l-291 -309v-113zM1028 260l213 225v-225h-213z" />
<glyph unicode="&#xbf;" horiz-adv-x="997" d="M55 -29q0 -170 185 -260q147 -72 344 -71q76 0 160.5 9t189.5 29l31 259q-86 -37 -174.5 -55.5t-157.5 -18.5q-113 0 -181.5 38t-68.5 101q0 72 153.5 227.5t153.5 321.5q0 55 -12 127h-275q4 -16 6.5 -40t2.5 -42q0 -143 -113 -256q-244 -244 -244 -369zM403 758h291 v274h-291v-274z" />
<glyph unicode="&#xc0;" horiz-adv-x="1417" d="M-63 0h337l193 467h530l179 -467h321l-563 1370h-354zM479 1741l211 -275h225l-113 275h-323zM549 694l209 467l160 -467h-369z" />
<glyph unicode="&#xc1;" horiz-adv-x="1417" d="M-63 0h337l193 467h530l179 -467h321l-563 1370h-354zM549 694l209 467l160 -467h-369zM649 1469h225l193 274h-322z" />
<glyph unicode="&#xc2;" horiz-adv-x="1417" d="M-63 0h337l193 467h530l179 -467h321l-563 1370h-354zM475 1465h194l113 145l96 -145h193l-113 258h-354zM549 694l209 467l160 -467h-369z" />
<glyph unicode="&#xc3;" horiz-adv-x="1417" d="M-63 0h337l193 467h530l179 -467h321l-563 1370h-354zM463 1487h162q0 55 8 78.5t33 23.5q6 0 145 -82q70 -41 131 -41q63 0 103 39q51 51 51 164q0 14 -2 32.5t-2 28.5h-162q0 -14 2 -28.5t2 -22.5q0 -61 -29 -61q-6 0 -159 82q-76 41 -133 41q-150 0 -150 -254z M549 694l209 467l160 -467h-369z" />
<glyph unicode="&#xc4;" horiz-adv-x="1417" d="M-63 0h337l193 467h530l179 -467h321l-563 1370h-354zM464 1484h242v193h-242v-193zM549 694l209 467l160 -467h-369zM819 1484h241v193h-241v-193z" />
<glyph unicode="&#xc5;" horiz-adv-x="1417" d="M-63 0h337l193 467h530l179 -467h321l-563 1370h-354zM539 1636q0 90 61.5 153.5t151.5 63.5t153.5 -61.5t63.5 -151.5q0 -92 -60.5 -154.5t-150.5 -62.5t-154.5 62.5t-64.5 150.5zM549 694l209 467l160 -467h-369zM662 1640q0 -39 24.5 -65.5t65.5 -26.5q39 0 66.5 25.5 t27.5 62.5q0 39 -25.5 66.5t-64.5 27.5t-66.5 -25.5t-27.5 -64.5z" />
<glyph unicode="&#xc6;" horiz-adv-x="1820" d="M-80 0h322l209 500h434l112 -500h678v209h-420l-96 387h483v211h-532l-96 354h661v209h-1126zM532 709l209 485l111 -485h-320z" />
<glyph unicode="&#xc7;" horiz-adv-x="1320" d="M76 709q0 -295 149 -482q164 -204 486 -243l-195 -256h320l104 249q68 0 135 11q18 2 148 28l32 242q-98 -35 -188 -51.5t-166 -16.5q-248 0 -393 152q-129 135 -129 334t129 338q143 154 383 153q78 0 165 -17t183 -54l-31 243q-143 59 -323 60q-326 0 -549 -162 q-260 -188 -260 -528z" />
<glyph unicode="&#xc8;" horiz-adv-x="1255" d="M162 0h981v225h-676v371h596v211h-596v338h676v225h-981v-1370zM307 1719l211 -275h225l-113 275h-323z" />
<glyph unicode="&#xc9;" horiz-adv-x="1255" d="M162 0h981v225h-676v371h596v211h-596v338h676v225h-981v-1370zM602 1440h225l193 274h-322z" />
<glyph unicode="&#xca;" horiz-adv-x="1255" d="M162 0h981v225h-676v371h596v211h-596v338h676v225h-981v-1370zM381 1452h194l113 145l96 -145h193l-113 258h-354z" />
<glyph unicode="&#xcb;" horiz-adv-x="1255" d="M162 0h981v225h-676v371h596v211h-596v338h676v225h-981v-1370zM381 1484h242v193h-242v-193zM736 1484h241v193h-241v-193z" />
<glyph unicode="&#xcc;" horiz-adv-x="595" d="M-18 1749l211 -275h225l-113 275h-323zM145 0h322v1370h-322v-1370z" />
<glyph unicode="&#xcd;" horiz-adv-x="595" d="M145 0h322v1370h-322v-1370zM178 1458h225l193 274h-322z" />
<glyph unicode="&#xce;" horiz-adv-x="595" d="M9 1467h194l113 145l96 -145h193l-113 258h-354zM145 0h322v1370h-322v-1370z" />
<glyph unicode="&#xcf;" horiz-adv-x="595" d="M4 1456h242v193h-242v-193zM145 0h322v1370h-322v-1370zM359 1456h241v193h-241v-193z" />
<glyph unicode="&#xd0;" horiz-adv-x="1529" d="M-49 592v209h211v569h706q291 0 461 -205q154 -186 154 -454q0 -285 -162 -486q-182 -225 -485 -225h-674v592h-211zM451 225h307q197 0 315 154q106 137 107 334q0 182 -99 299q-113 133 -323 133h-307v-344l245 2v-213l-245 2v-367z" />
<glyph unicode="&#xd1;" horiz-adv-x="1609" d="M145 0h275v1016l690 -1016h371v1370h-273v-1048l-659 1048h-404v-1370zM522 1465h162q0 55 8 78.5t33 23.5q6 0 145 -82q70 -41 131 -41q63 0 103 39q51 51 51 164q0 14 -2 32.5t-2 28.5h-162q0 -14 2 -28.5t2 -22.5q0 -61 -29 -61q-6 0 -159 82q-76 41 -133 41 q-150 0 -150 -254z" />
<glyph unicode="&#xd2;" horiz-adv-x="1726" d="M59 676q0 -289 191 -490q211 -221 567 -221q399 0 619 217q197 195 196 500q0 295 -194 496q-219 227 -596 227q-369 0 -586 -229q-197 -207 -197 -500zM383 686q0 203 121 344q131 152 348 152q221 0 348 -154q113 -137 113 -338q0 -213 -117 -352q-129 -156 -358 -156 q-213 0 -340 158q-115 143 -115 346zM459 1780l211 -275h225l-113 275h-323z" />
<glyph unicode="&#xd3;" horiz-adv-x="1726" d="M59 676q0 -289 191 -490q211 -221 567 -221q399 0 619 217q197 195 196 500q0 295 -194 496q-219 227 -596 227q-369 0 -586 -229q-197 -207 -197 -500zM383 686q0 203 121 344q131 152 348 152q221 0 348 -154q113 -137 113 -338q0 -213 -117 -352q-129 -156 -358 -156 q-213 0 -340 158q-115 143 -115 346zM727 1489h225l193 274h-322z" />
<glyph unicode="&#xd4;" horiz-adv-x="1726" d="M59 676q0 -289 191 -490q211 -221 567 -221q399 0 619 217q197 195 196 500q0 295 -194 496q-219 227 -596 227q-369 0 -586 -229q-197 -207 -197 -500zM383 686q0 203 121 344q131 152 348 152q221 0 348 -154q113 -137 113 -338q0 -213 -117 -352q-129 -156 -358 -156 q-213 0 -340 158q-115 143 -115 346zM529 1489h194l113 145l96 -145h193l-113 258h-354z" />
<glyph unicode="&#xd5;" horiz-adv-x="1726" d="M59 676q0 -289 191 -490q211 -221 567 -221q399 0 619 217q197 195 196 500q0 295 -194 496q-219 227 -596 227q-369 0 -586 -229q-197 -207 -197 -500zM383 686q0 203 121 344q131 152 348 152q221 0 348 -154q113 -137 113 -338q0 -213 -117 -352q-129 -156 -358 -156 q-213 0 -340 158q-115 143 -115 346zM524 1516h162q0 55 8 78.5t33 23.5q6 0 145 -82q70 -41 131 -41q63 0 103 39q51 51 51 164q0 14 -2 32.5t-2 28.5h-162q0 -14 2 -28.5t2 -22.5q0 -61 -29 -61q-6 0 -159 82q-76 41 -133 41q-150 0 -150 -254z" />
<glyph unicode="&#xd6;" horiz-adv-x="1726" d="M59 676q0 -289 191 -490q211 -221 567 -221q399 0 619 217q197 195 196 500q0 295 -194 496q-219 227 -596 227q-369 0 -586 -229q-197 -207 -197 -500zM383 686q0 203 121 344q131 152 348 152q221 0 348 -154q113 -137 113 -338q0 -213 -117 -352q-129 -156 -358 -156 q-213 0 -340 158q-115 143 -115 346zM538 1513h242v193h-242v-193zM893 1513h241v193h-241v-193z" />
<glyph unicode="&#xd7;" d="M156 213l301 303l-262 262l182 183l262 -263l246 244l196 -164l-260 -262l277 -278l-185 -179l-274 273l-287 -283z" />
<glyph unicode="&#xd8;" horiz-adv-x="1708" d="M86 657q0 -203 90 -350q72 -117 195 -194l-146 -242h258l97 145q133 -37 280 -36q332 0 535 155q242 186 241 557q0 176 -71 320q-78 154 -228 245l160 242h-274l-80 -145q-158 35 -301 35q-336 0 -539 -183q-217 -195 -217 -549zM389 690q0 197 113 330q125 150 346 149 q84 1 182 -24l-498 -823q-68 68 -105.5 166t-37.5 202zM678 225l514 824q68 -76 103.5 -172.5t35.5 -194.5q0 -201 -119 -340q-129 -152 -338 -152q-94 0 -196 35z" />
<glyph unicode="&#xd9;" horiz-adv-x="1529" d="M129 403q0 -211 199 -333q180 -111 438 -111q260 0 436 107q199 119 199 321v983h-307v-870q0 -154 -97 -242q-84 -78 -213 -78q-137 0 -237 86q-111 96 -111 250v854h-307v-967zM422 1758l211 -275h225l-113 275h-323z" />
<glyph unicode="&#xda;" horiz-adv-x="1529" d="M129 403q0 -211 199 -333q180 -111 438 -111q260 0 436 107q199 119 199 321v983h-307v-870q0 -154 -97 -242q-84 -78 -213 -78q-137 0 -237 86q-111 96 -111 250v854h-307v-967zM735 1487h225l193 274h-322z" />
<glyph unicode="&#xdb;" horiz-adv-x="1529" d="M129 403q0 -211 199 -333q180 -111 438 -111q260 0 436 107q199 119 199 321v983h-307v-870q0 -154 -97 -242q-84 -78 -213 -78q-137 0 -237 86q-111 96 -111 250v854h-307v-967zM475 1506h194l113 145l96 -145h193l-113 258h-354z" />
<glyph unicode="&#xdc;" horiz-adv-x="1529" d="M129 403q0 -211 199 -333q180 -111 438 -111q260 0 436 107q199 119 199 321v983h-307v-870q0 -154 -97 -242q-84 -78 -213 -78q-137 0 -237 86q-111 96 -111 250v854h-307v-967zM473 1499h242v193h-242v-193zM828 1499h241v193h-241v-193z" />
<glyph unicode="&#xdd;" horiz-adv-x="1191" d="M-63 1370l483 -790v-580h305v532l514 838h-338l-305 -579l-322 579h-337zM540 1462h225l193 274h-322z" />
<glyph unicode="&#xde;" horiz-adv-x="1255" d="M113 1370h290v-371q51 23 116 37.5t136 14.5q229 0 379 -129q180 -156 180 -457q0 -219 -132 -353.5t-318 -134.5q-98 0 -195.5 42t-181.5 126l-2 -497h-270zM403 451q0 -109 83 -192t176 -83q117 0 180 74q76 87 76 282q0 117 -58 197q-78 109 -235 109q-94 0 -222 -47 v-340z" />
<glyph unicode="&#xdf;" horiz-adv-x="1239" d="M129 0h291v967q0 113 63.5 171t151.5 58q66 0 109.5 -38t43.5 -109q0 -78 -88 -115t-88 -127q0 -117 207 -297q98 -86 99 -172q0 -70 -39 -106.5t-107 -36.5q-84 0 -207 47l31 -226q63 -23 122.5 -33t112.5 -10q172 0 279 90.5t107 223.5q0 150 -123 266 q-135 115 -269 231q0 25 116 96.5t116 209.5q0 150 -131 229q-115 70 -301 70q-199 0 -336 -89q-160 -102 -160 -284v-1016z" />
<glyph unicode="&#xe0;" horiz-adv-x="1159" d="M59 272q0 -123 86 -206q100 -98 283 -99q98 0 221 33l33 178q-18 -12 -71.5 -25.5t-102.5 -13.5q-68 0 -117 31t-49 88q0 115 225 180q158 45 211 78v-516h273v774q0 137 -131 203q-111 55 -295 55q-117 0 -224.5 -17t-203.5 -48l-15 -193q100 39 210 64.5t194 25.5 q82 0 131 -32.5t49 -81.5q0 -76 -182 -125q-289 -76 -340 -101q-184 -86 -185 -252zM164 1458l211 -274h225l-113 274h-323z" />
<glyph unicode="&#xe1;" horiz-adv-x="1159" d="M55 272q0 -123 86 -206q100 -98 283 -99q98 0 221 33l33 178q-18 -12 -71.5 -25.5t-102.5 -13.5q-68 0 -117 31t-49 88q0 115 225 180q158 45 211 78v-516h273v774q0 137 -132 203q-111 55 -294 55q-117 0 -224.5 -17t-203.5 -48l-15 -193q100 39 210 64.5t194 25.5 q82 0 131 -32.5t49 -81.5q0 -76 -182 -125q-289 -76 -340 -101q-184 -86 -185 -252zM565 1176h225l193 274h-322z" />
<glyph unicode="&#xe2;" horiz-adv-x="1159" d="M55 272q0 -123 86 -206q100 -98 283 -99q98 0 221 33l33 178q-18 -12 -71.5 -25.5t-102.5 -13.5q-68 0 -117 31t-49 88q0 115 225 180q158 45 211 78v-516h273v774q0 137 -132 203q-111 55 -294 55q-117 0 -224.5 -17t-203.5 -48l-15 -193q100 39 210 64.5t194 25.5 q82 0 131 -32.5t49 -81.5q0 -76 -182 -125q-289 -76 -340 -101q-184 -86 -185 -252zM299 1192h194l113 145l96 -145h193l-113 258h-354z" />
<glyph unicode="&#xe3;" horiz-adv-x="1159" d="M55 272q0 -123 86 -206q100 -98 283 -99q98 0 221 33l33 178q-18 -12 -71.5 -25.5t-102.5 -13.5q-68 0 -117 31t-49 88q0 115 225 180q158 45 211 78v-516h273v774q0 137 -132 203q-111 55 -294 55q-117 0 -224.5 -17t-203.5 -48l-15 -193q100 39 210 64.5t194 25.5 q82 0 131 -32.5t49 -81.5q0 -76 -182 -125q-289 -76 -340 -101q-184 -86 -185 -252zM301 1207h162q0 55 8 78.5t33 23.5q6 0 145 -82q70 -41 131 -41q63 0 103 39q51 51 51 164q0 14 -2 32.5t-2 28.5h-162q0 -14 2 -28.5t2 -22.5q0 -61 -29 -61q-6 0 -159 82q-76 41 -133 41 q-150 0 -150 -254z" />
<glyph unicode="&#xe4;" horiz-adv-x="1159" d="M55 272q0 -123 86 -206q100 -98 283 -99q98 0 221 33l33 178q-18 -12 -71.5 -25.5t-102.5 -13.5q-68 0 -117 31t-49 88q0 115 225 180q158 45 211 78v-516h273v774q0 137 -132 203q-111 55 -294 55q-117 0 -224.5 -17t-203.5 -48l-15 -193q100 39 210 64.5t194 25.5 q82 0 131 -32.5t49 -81.5q0 -76 -182 -125q-289 -76 -340 -101q-184 -86 -185 -252zM297 1253h242v193h-242v-193zM652 1253h241v193h-241v-193z" />
<glyph unicode="&#xe5;" horiz-adv-x="1159" d="M55 272q0 -123 86 -206q100 -98 283 -99q98 0 221 33l33 178q-18 -12 -71.5 -25.5t-102.5 -13.5q-68 0 -117 31t-49 88q0 115 225 180q158 45 211 78v-516h273v774q0 137 -132 203q-111 55 -294 55q-117 0 -224.5 -17t-203.5 -48l-15 -193q100 39 210 64.5t194 25.5 q82 0 131 -32.5t49 -81.5q0 -76 -182 -125q-289 -76 -340 -101q-184 -86 -185 -252zM457 1335q0 68 52 116t126 48t127 -47t53 -115t-50 -115.5t-126 -47.5q-72 0 -127 47t-55 114zM559 1337q0 -31 21.5 -50t54.5 -19t55.5 18t22.5 49q0 29 -20.5 49.5t-53.5 20.5 t-56.5 -19.5t-23.5 -48.5z" />
<glyph unicode="&#xe6;" horiz-adv-x="1755" d="M68 289q0 -160 100 -240t289 -80q57 0 108 6.5t113 24.5l47 178q-123 -41 -207 -41q-74 0 -118 36t-44 89q0 66 107 121q147 66 295 133q0 -256 168 -403q158 -139 401 -140q150 0 315 60l17 209q-170 -80 -311 -80t-226 78q-94 86 -108 260h725q4 23 4 47v39 q0 227 -139 354q-123 113 -308 113q-104 0 -195 -38t-151 -112q-59 80 -143 113t-189 33q-76 0 -217 -25t-192 -25l-31 -208q113 43 212 64.5t175 21.5q104 0 159.5 -32t55.5 -81q0 -70 -184 -129q-307 -98 -342 -115q-186 -90 -186 -231zM1014 629q18 117 90 180t162 63 q88 0 151.5 -64t63.5 -179h-467z" />
<glyph unicode="&#xe7;" horiz-adv-x="997" d="M57 516q0 217 133 365q147 164 410 163q131 0 285 -45l33 -241q-150 66 -263 65q-147 0 -233 -98q-78 -90 -78 -219q0 -135 82 -234q90 -106 240 -106q57 0 110 12t125 47l-16 -209q-102 -37 -189 -49l-98 -239h-324l189 245q-188 43 -301 203q-104 150 -105 340z" />
<glyph unicode="&#xe8;" horiz-adv-x="1142" d="M59 514q0 -297 191 -432q150 -106 393 -107q104 0 201.5 19.5t136.5 38.5l33 209q-59 -33 -151.5 -55.5t-182.5 -22.5q-150 0 -236 65q-106 80 -106 254h741l6 92q0 225 -151 355q-137 117 -338 117q-227 0 -373 -127q-164 -143 -164 -406zM139 1463l211 -275h225 l-113 275h-323zM338 629q16 111 88 171t162 60t153.5 -59t63.5 -172h-467z" />
<glyph unicode="&#xe9;" horiz-adv-x="1142" d="M59 514q0 -297 191 -432q150 -106 393 -107q104 0 201.5 19.5t136.5 38.5l33 209q-59 -33 -151.5 -55.5t-182.5 -22.5q-150 0 -236 65q-106 80 -106 254h741l6 92q0 225 -151 355q-137 117 -338 117q-227 0 -373 -127q-164 -143 -164 -406zM338 629q16 111 88 171t162 60 t153.5 -59t63.5 -172h-467zM549 1196h225l193 274h-322z" />
<glyph unicode="&#xea;" horiz-adv-x="1142" d="M59 514q0 -297 191 -432q150 -106 393 -107q104 0 201.5 19.5t136.5 38.5l33 209q-59 -33 -151.5 -55.5t-182.5 -22.5q-150 0 -236 65q-106 80 -106 254h741l6 92q0 225 -151 355q-137 117 -338 117q-227 0 -373 -127q-164 -143 -164 -406zM291 1205h194l113 145l96 -145 h193l-113 258h-354zM338 629q16 111 88 171t162 60t153.5 -59t63.5 -172h-467z" />
<glyph unicode="&#xeb;" horiz-adv-x="1142" d="M59 514q0 -297 191 -432q150 -106 393 -107q104 0 201.5 19.5t136.5 38.5l33 209q-59 -33 -151.5 -55.5t-182.5 -22.5q-150 0 -236 65q-106 80 -106 254h741l6 92q0 225 -151 355q-137 117 -338 117q-227 0 -373 -127q-164 -143 -164 -406zM270 1235h242v193h-242v-193z M338 629q16 111 88 171t162 60t153.5 -59t63.5 -172h-467zM625 1235h241v193h-241v-193z" />
<glyph unicode="&#xec;" horiz-adv-x="548" d="M-49 1459l211 -275h225l-113 275h-323zM145 0h291v1016h-291v-1016z" />
<glyph unicode="&#xed;" horiz-adv-x="548" d="M145 0h291v1016h-291v-1016zM213 1213h225l193 274h-322z" />
<glyph unicode="&#xee;" horiz-adv-x="548" d="M-4 1213h194l113 145l96 -145h193l-113 258h-354zM145 0h291v1016h-291v-1016z" />
<glyph unicode="&#xef;" horiz-adv-x="548" d="M4 1245h242v193h-242v-193zM145 0h291v1016h-291v-1016zM359 1245h241v193h-241v-193z" />
<glyph unicode="&#xf0;" d="M113 438q0 166 100 277q111 123 301 123q39 0 61.5 -2t69.5 -13l113 -211q-72 23 -125 23q-106 0 -168 -67.5t-62 -157.5q0 -98 74 -160t176 -62q98 0 167 64.5t69 189.5q0 127 -60 258q-47 104 -165 279l-205 -94v221l82 49l-135 199h368l62 -90l294 104v-213l-184 -72 q119 -209 174.5 -373.5t55.5 -293.5q0 -238 -179 -355q-143 -94 -368 -94q-244 0 -387 150q-129 135 -129 321z" />
<glyph unicode="&#xf1;" horiz-adv-x="1304" d="M129 0h291v549q0 135 88 211q78 68 186 67q90 0 157 -49t67 -133v-645h290v758q0 129 -100 207q-111 84 -320 84q-106 0 -194 -39q-104 -47 -174 -140v146h-291v-1016zM354 1190h162q0 55 8 78.5t33 23.5q6 0 145 -82q70 -41 131 -41q63 0 103 39q51 51 51 164 q0 14 -2 32.5t-2 28.5h-162q0 -14 2 -28.5t2 -22.5q0 -61 -29 -61q-6 0 -159 82q-76 41 -133 41q-150 0 -150 -254z" />
<glyph unicode="&#xf2;" horiz-adv-x="1255" d="M63 506q0 -217 136 -361q154 -162 430 -161q254 0 413 168q145 154 146 362q0 221 -146 377q-162 174 -430 174q-256 0 -409 -176q-139 -160 -140 -383zM246 1495l211 -275h225l-113 275h-323zM352 516q0 131 68 229q75 109 192 109q127 0 211 -101.5t84 -236.5t-73 -231 q-82 -106 -222 -107q-121 0 -194 105q-66 94 -66 233z" />
<glyph unicode="&#xf3;" horiz-adv-x="1255" d="M63 506q0 -217 136 -361q154 -162 430 -161q254 0 413 168q145 154 146 362q0 221 -146 377q-162 174 -430 174q-256 0 -409 -176q-139 -160 -140 -383zM352 516q0 131 68 229q75 109 192 109q127 0 211 -101.5t84 -236.5t-73 -231q-82 -106 -222 -107q-121 0 -194 105 q-66 94 -66 233zM571 1225h225l193 274h-322z" />
<glyph unicode="&#xf4;" horiz-adv-x="1255" d="M63 506q0 -217 136 -361q154 -162 430 -161q254 0 413 168q145 154 146 362q0 221 -146 377q-162 174 -430 174q-256 0 -409 -176q-139 -160 -140 -383zM314 1211h194l113 145l96 -145h193l-113 258h-354zM352 516q0 131 68 229q75 109 192 109q127 0 211 -101.5 t84 -236.5t-73 -231q-82 -106 -222 -107q-121 0 -194 105q-66 94 -66 233z" />
<glyph unicode="&#xf5;" horiz-adv-x="1255" d="M63 506q0 -217 136 -361q154 -162 430 -161q254 0 413 168q145 154 146 362q0 221 -146 377q-162 174 -430 174q-256 0 -409 -176q-139 -160 -140 -383zM334 1172h162q0 55 8 78.5t33 23.5q6 0 145 -82q70 -41 131 -41q63 0 103 39q51 51 51 164q0 14 -2 32.5t-2 28.5 h-162q0 -14 2 -28.5t2 -22.5q0 -61 -29 -61q-6 0 -159 82q-76 41 -133 41q-150 0 -150 -254zM352 516q0 131 68 229q75 109 192 109q127 0 211 -101.5t84 -236.5t-73 -231q-82 -106 -222 -107q-121 0 -194 105q-66 94 -66 233z" />
<glyph unicode="&#xf6;" horiz-adv-x="1255" d="M63 506q0 -217 136 -361q154 -162 430 -161q254 0 413 168q145 154 146 362q0 221 -146 377q-162 174 -430 174q-256 0 -409 -176q-139 -160 -140 -383zM348 1210h242v193h-242v-193zM352 516q0 131 68 229q75 109 192 109q127 0 211 -101.5t84 -236.5t-73 -231 q-82 -106 -222 -107q-121 0 -194 105q-66 94 -66 233zM703 1210h241v193h-241v-193z" />
<glyph unicode="&#xf7;" horiz-adv-x="1142" d="M61 428v209h1014v-209h-1014zM387 0v291h305v-291h-305zM387 758v291h305v-291h-305z" />
<glyph unicode="&#xf8;" horiz-adv-x="1255" d="M61 489q0 -129 54.5 -238.5t158.5 -170.5l-129 -193h258l64 97q49 -8 92 -12.5t88 -4.5q274 0 426 164q133 143 133 356q0 135 -54 252t-155 181l129 208h-241l-64 -112q-94 20 -186 20q-274 0 -432 -172q-141 -154 -142 -375zM354 508q0 137 76 225q84 98 232 98l79 -8 l-321 -549q-66 109 -66 234zM549 178l319 547q51 -135 52 -246q0 -145 -78 -229t-201 -84q-45 0 -92 12z" />
<glyph unicode="&#xf9;" horiz-adv-x="1271" d="M113 274q0 -150 116 -235q104 -78 250 -78q133 0 247 53.5t142 130.5v-145h291v1016h-291v-549q0 -127 -70.5 -199.5t-168.5 -72.5q-82 0 -154 67.5t-72 157.5v596h-290v-742zM209 1463l211 -275h225l-113 275h-323z" />
<glyph unicode="&#xfa;" horiz-adv-x="1271" d="M113 274q0 -150 116 -235q104 -78 250 -78q133 0 247 53.5t142 130.5v-145h291v1016h-291v-549q0 -127 -70.5 -199.5t-168.5 -72.5q-82 0 -154 67.5t-72 157.5v596h-290v-742zM592 1190h225l193 274h-322z" />
<glyph unicode="&#xfb;" horiz-adv-x="1271" d="M113 274q0 -150 116 -235q104 -78 250 -78q133 0 247 53.5t142 130.5v-145h291v1016h-291v-549q0 -127 -70.5 -199.5t-168.5 -72.5q-82 0 -154 67.5t-72 157.5v596h-290v-742zM334 1192h194l113 145l96 -145h193l-113 258h-354z" />
<glyph unicode="&#xfc;" horiz-adv-x="1271" d="M113 274q0 -150 116 -235q104 -78 250 -78q133 0 247 53.5t142 130.5v-145h291v1016h-291v-549q0 -127 -70.5 -199.5t-168.5 -72.5q-82 0 -154 67.5t-72 157.5v596h-290v-742zM340 1255h242v193h-242v-193zM695 1255h241v193h-241v-193z" />
<glyph unicode="&#xfd;" horiz-adv-x="1093" d="M-16 -225l16 -211q135 -31 236 -31q150 0 243.5 64.5t149.5 193.5l481 1225h-274l-271 -791l-274 791h-307l419 -1032q-18 -90 -55 -148q-68 -102 -190 -102q-41 0 -78 8t-96 33zM549 1200h225l193 274h-322z" />
<glyph unicode="&#xfe;" horiz-adv-x="1255" d="M115 -74v1311h286l2 -238q51 23 116 37.5t136 14.5q229 0 379 -129q180 -156 180 -457q0 -219 -132 -353.5t-318 -134.5q-98 0 -195.5 42t-181.5 126l-2 -219h-270zM403 451q0 -109 83 -192t176 -83q117 0 180 74q76 87 76 282q0 117 -58 197q-78 109 -235 109 q-94 0 -222 -47v-340z" />
<glyph unicode="&#xff;" horiz-adv-x="1093" d="M-16 -225l16 -211q135 -31 236 -31q150 0 243.5 64.5t149.5 193.5l481 1225h-274l-271 -791l-274 791h-307l419 -1032q-18 -90 -55 -148q-68 -102 -190 -102q-41 0 -78 8t-96 33zM286 1224h242v193h-242v-193zM641 1224h241v193h-241v-193z" />
<glyph unicode="&#x152;" horiz-adv-x="2142" d="M80 725q0 -373 229 -561q199 -164 527 -164h790v225h-258v355h242v211h-242v354h258v241h-596q-283 0 -432 -28q-242 -47 -367 -176q-152 -158 -151 -457zM387 678q0 260 156 379q129 98 364 98l187 -10v-936h-209q-221 0 -348 102q-150 121 -150 367z" />
<glyph unicode="&#x153;" horiz-adv-x="1949" d="M61 512q0 -246 177 -403q166 -147 389 -148q125 0 235.5 55.5t184.5 161.5q70 -117 208 -172q113 -45 265 -45q94 0 175 15.5t126 39.5l16 209q-72 -33 -150.5 -52t-164.5 -19q-145 0 -230 69q-100 84 -100 260h725l6 84q0 213 -149 344q-135 117 -328 117 q-123 0 -227 -51.5t-172 -153.5q-76 98 -186.5 147.5t-242.5 49.5q-231 0 -385 -125q-172 -139 -172 -383zM354 500q0 152 90 243q82 84 201 84q111 0 189 -79q86 -90 86 -240q0 -166 -84 -258q-76 -84 -189 -84q-119 0 -201 84q-92 94 -92 250zM1192 629q0 106 72.5 164.5 t169.5 58.5q94 0 155 -53q70 -61 70 -170h-467z" />
<glyph unicode="&#x178;" horiz-adv-x="1191" d="M-63 1380l483 -790v-580h305v533l514 837h-338l-305 -579l-322 579h-337zM336 1495h231v182h-231v-182zM676 1495h231v182h-231v-182z" />
<glyph unicode="&#x2c6;" horiz-adv-x="933" d="M113 1178h194l113 145l96 -145h193l-113 258h-354z" />
<glyph unicode="&#x2dc;" horiz-adv-x="950" d="M129 1225h162q0 55 8 78.5t33 23.5q6 0 145 -82q70 -41 131 -41q63 0 103 39q51 51 51 164q0 14 -2 32.5t-2 28.5h-162q0 -14 2 -28.5t2 -22.5q0 -61 -29 -61q-6 0 -159 82q-76 41 -133 41q-150 0 -150 -254z" />
<glyph unicode="&#x2000;" horiz-adv-x="926" />
<glyph unicode="&#x2001;" horiz-adv-x="1853" />
<glyph unicode="&#x2002;" horiz-adv-x="926" />
<glyph unicode="&#x2003;" horiz-adv-x="1853" />
<glyph unicode="&#x2004;" horiz-adv-x="617" />
<glyph unicode="&#x2005;" horiz-adv-x="463" />
<glyph unicode="&#x2006;" horiz-adv-x="308" />
<glyph unicode="&#x2007;" horiz-adv-x="308" />
<glyph unicode="&#x2008;" horiz-adv-x="231" />
<glyph unicode="&#x2009;" horiz-adv-x="370" />
<glyph unicode="&#x200a;" horiz-adv-x="102" />
<glyph unicode="&#x2010;" horiz-adv-x="657" d="M61 420h533v209h-533v-209z" />
<glyph unicode="&#x2011;" horiz-adv-x="657" d="M61 420h533v209h-533v-209z" />
<glyph unicode="&#x2012;" horiz-adv-x="657" d="M61 420h533v209h-533v-209z" />
<glyph unicode="&#x2013;" horiz-adv-x="1013" d="M0 420h1014v209h-1014v-209z" />
<glyph unicode="&#x2014;" horiz-adv-x="2045" d="M-16 420h1595v192h-1595v-192z" />
<glyph unicode="&#x2018;" horiz-adv-x="436" d="M49 999h242l96 355h-145z" />
<glyph unicode="&#x2019;" horiz-adv-x="436" d="M33 983h145l193 371h-242z" />
<glyph unicode="&#x201a;" horiz-adv-x="436" d="M0 -180l96 370h242l-193 -370h-145z" />
<glyph unicode="&#x201c;" horiz-adv-x="788" d="M49 999h242l96 355h-145zM403 999h242l96 355h-145z" />
<glyph unicode="&#x201d;" horiz-adv-x="788" d="M33 983h145l193 371h-242zM420 983h145l193 371h-242z" />
<glyph unicode="&#x201e;" horiz-adv-x="788" d="M33 -178h145l193 371h-242zM403 -178h146l192 371h-241z" />
<glyph unicode="&#x2022;" horiz-adv-x="724" d="M162 403h305v275h-305v-275z" />
<glyph unicode="&#x2026;" horiz-adv-x="2119" d="M162 0v291h305v-291h-305zM883 0v291h305v-291h-305zM1624 0v291h305v-291h-305z" />
<glyph unicode="&#x202f;" horiz-adv-x="370" />
<glyph unicode="&#x2039;" horiz-adv-x="595" d="M80 516l194 -354h209l-161 354l161 338h-209z" />
<glyph unicode="&#x203a;" horiz-adv-x="595" d="M113 178h209l194 338l-194 338h-209l178 -338z" />
<glyph unicode="&#x205f;" horiz-adv-x="463" />
<glyph unicode="&#x2122;" horiz-adv-x="1644" d="M70 1366h219v-575h151v575h217v113h-587v-113zM741 788h121v517l176 -517h138l176 533v-533h137v689h-209l-170 -516l-160 516h-209v-689z" />
<glyph unicode="&#x25fc;" horiz-adv-x="1013" d="M0 0v1014h1014v-1014h-1014z" />
</font>
</defs>
</svg>
